<svg id="Capa_1" data-name="Capa 1" xmlns="http://www.w3.org/2000/svg" viewBox="0 0 57 57"><title>quote</title><rect width="57" height="57" style="fill:#ecf0f1"/><circle cx="38.5" cy="25.5" r="5.5" style="fill:#bdc3c7"/><path d="M38.5,19A6.5,6.5,0,1,1,32,25.5,6.51,6.51,0,0,1,38.5,19Zm0,11A4.5,4.5,0,1,0,34,25.5,4.51,4.51,0,0,0,38.5,30Z" style="fill:#bdc3c7"/><circle cx="21.5" cy="25.5" r="5.5" style="fill:#bdc3c7"/><path d="M21.5,19A6.5,6.5,0,1,1,15,25.5,6.51,6.51,0,0,1,21.5,19Zm0,11A4.5,4.5,0,1,0,17,25.5,4.51,4.51,0,0,0,21.5,30Z" style="fill:#bdc3c7"/><path d="M44,25a1,1,0,0,1,1,1A14,14,0,0,1,31,40a1,1,0,0,1,0-2A12,12,0,0,0,43,26,1,1,0,0,1,44,25Z" style="fill:#bdc3c7"/><path d="M27,25a1,1,0,0,1,1,1A14,14,0,0,1,14,40a1,1,0,0,1,0-2A12,12,0,0,0,26,26,1,1,0,0,1,27,25Z" style="fill:#bdc3c7"/></svg>